M48
; DRILL file {KiCad 8.0.6} date 2024-12-06T14:03:24+0300
; FORMAT={-:-/ absolute / inch / decimal}
; #@! TF.CreationDate,2024-12-06T14:03:24+03:00
; #@! TF.GenerationSoftware,Kicad,Pcbnew,8.0.6
; #@! TF.FileFunction,Plated,1,2,PTH
FMAT,2
INCH
; #@! TA.AperFunction,Plated,PTH,ComponentDrill
T1C0.0394
%
G90
G05
T1
X5.0Y-2.2429
X5.0Y-2.3429
X5.0Y-2.4429
X5.0Y-2.5429
X5.0Y-2.6429
X5.0Y-2.7429
X5.0Y-2.8429
X5.0Y-2.9429
X5.0Y-3.0429
X5.0Y-3.1429
X5.0Y-3.2429
X5.0Y-3.3429
X5.0Y-3.4429
X5.0Y-3.5429
X5.0Y-3.6429
X5.6Y-2.2429
X5.6Y-2.3429
X5.6Y-2.4429
X5.6Y-2.5429
X5.6Y-2.6429
X5.6Y-2.7429
X5.6Y-2.8429
X5.6Y-2.9429
X5.6Y-3.0429
X5.6Y-3.1429
X5.6Y-3.2429
X5.6Y-3.3429
X5.6Y-3.4429
X5.6Y-3.5429
X5.6Y-3.6429
X5.9764Y-3.3071
X6.0764Y-3.3071
X6.1764Y-3.3071
X6.2764Y-3.3071
X6.3764Y-3.3071
X6.4764Y-3.3071
X6.5764Y-3.7071
X6.5764Y-3.8071
M30
