%TF.GenerationSoftware,KiCad,Pcbnew,8.0.6*%
%TF.CreationDate,2024-12-06T13:27:21+03:00*%
%TF.ProjectId,AKB_BAS,414b425f-4241-4532-9e6b-696361645f70,rev?*%
%TF.SameCoordinates,Original*%
%TF.FileFunction,Copper,L1,Top*%
%TF.FilePolarity,Positive*%
%FSLAX46Y46*%
G04 Gerber Fmt 4.6, Leading zero omitted, Abs format (unit mm)*
G04 Created by KiCad (PCBNEW 8.0.6) date 2024-12-06 13:27:21*
%MOMM*%
%LPD*%
G01*
G04 APERTURE LIST*
%TA.AperFunction,NonConductor*%
%ADD10C,0.200000*%
%TD*%
%TA.AperFunction,ComponentPad*%
%ADD11C,1.700000*%
%TD*%
%TA.AperFunction,ComponentPad*%
%ADD12R,1.600000X1.600000*%
%TD*%
%TA.AperFunction,ComponentPad*%
%ADD13O,1.600000X1.600000*%
%TD*%
%TA.AperFunction,Conductor*%
%ADD14C,0.600000*%
%TD*%
G04 APERTURE END LIST*
D10*
X146000000Y-82000000D02*
X169000000Y-82000000D01*
X146000000Y-53500000D02*
X146000000Y-82000000D01*
X122000000Y-53500000D02*
X146000000Y-53500000D01*
X122000000Y-99500000D02*
X122000000Y-53500000D01*
X169000000Y-99500000D02*
X122000000Y-99500000D01*
X169000000Y-82000000D02*
X169000000Y-99500000D01*
D11*
%TO.P,U1,2,VCC*%
%TO.N,Net-(A1-+5V)*%
X167040000Y-96700000D03*
%TO.P,U1,1,GND*%
%TO.N,Net-(U1-GND)*%
X167040000Y-94160000D03*
%TO.P,U1,5,SCK*%
%TO.N,Net-(A1-D13)*%
X156880000Y-84000000D03*
%TO.P,U1,6,MOSI*%
%TO.N,Net-(A1-D11)*%
X159420000Y-84000000D03*
%TO.P,U1,7,MISO*%
%TO.N,Net-(A1-D12)*%
X161960000Y-84000000D03*
%TO.P,U1,8,IRQ*%
%TO.N,unconnected-(U1-IRQ-Pad8)*%
X164500000Y-84000000D03*
%TO.P,U1,3,CE*%
%TO.N,Net-(A1-D9)*%
X151800000Y-84000000D03*
%TO.P,U1,4,~{CSN}*%
%TO.N,Net-(A1-D10)*%
X154340000Y-84000000D03*
%TD*%
D12*
%TO.P,A1,1,D1/TX*%
%TO.N,unconnected-(A1-D1{slash}TX-Pad1)*%
X127000000Y-56970000D03*
D13*
%TO.P,A1,2,D0/RX*%
%TO.N,unconnected-(A1-D0{slash}RX-Pad2)*%
X127000000Y-59510000D03*
%TO.P,A1,3,~{RESET}*%
%TO.N,unconnected-(A1-~{RESET}-Pad3)*%
X127000000Y-62050000D03*
%TO.P,A1,4,GND*%
%TO.N,unconnected-(A1-GND-Pad4)*%
X127000000Y-64590000D03*
%TO.P,A1,5,D2*%
%TO.N,unconnected-(A1-D2-Pad5)*%
X127000000Y-67130000D03*
%TO.P,A1,6,D3*%
%TO.N,unconnected-(A1-D3-Pad6)*%
X127000000Y-69670000D03*
%TO.P,A1,7,D4*%
%TO.N,unconnected-(A1-D4-Pad7)*%
X127000000Y-72210000D03*
%TO.P,A1,8,D5*%
%TO.N,unconnected-(A1-D5-Pad8)*%
X127000000Y-74750000D03*
%TO.P,A1,9,D6*%
%TO.N,unconnected-(A1-D6-Pad9)*%
X127000000Y-77290000D03*
%TO.P,A1,10,D7*%
%TO.N,unconnected-(A1-D7-Pad10)*%
X127000000Y-79830000D03*
%TO.P,A1,11,D8*%
%TO.N,unconnected-(A1-D8-Pad11)*%
X127000000Y-82370000D03*
%TO.P,A1,12,D9*%
%TO.N,Net-(A1-D9)*%
X127000000Y-84910000D03*
%TO.P,A1,13,D10*%
%TO.N,Net-(A1-D10)*%
X127000000Y-87450000D03*
%TO.P,A1,14,D11*%
%TO.N,Net-(A1-D11)*%
X127000000Y-89990000D03*
%TO.P,A1,15,D12*%
%TO.N,Net-(A1-D12)*%
X127000000Y-92530000D03*
%TO.P,A1,16,D13*%
%TO.N,Net-(A1-D13)*%
X142240000Y-92530000D03*
%TO.P,A1,17,3V3*%
%TO.N,unconnected-(A1-3V3-Pad17)*%
X142240000Y-89990000D03*
%TO.P,A1,18,AREF*%
%TO.N,unconnected-(A1-AREF-Pad18)*%
X142240000Y-87450000D03*
%TO.P,A1,19,A0*%
%TO.N,unconnected-(A1-A0-Pad19)*%
X142240000Y-84910000D03*
%TO.P,A1,20,A1*%
%TO.N,unconnected-(A1-A1-Pad20)*%
X142240000Y-82370000D03*
%TO.P,A1,21,A2*%
%TO.N,unconnected-(A1-A2-Pad21)*%
X142240000Y-79830000D03*
%TO.P,A1,22,A3*%
%TO.N,unconnected-(A1-A3-Pad22)*%
X142240000Y-77290000D03*
%TO.P,A1,23,A4*%
%TO.N,unconnected-(A1-A4-Pad23)*%
X142240000Y-74750000D03*
%TO.P,A1,24,A5*%
%TO.N,unconnected-(A1-A5-Pad24)*%
X142240000Y-72210000D03*
%TO.P,A1,25,A6*%
%TO.N,unconnected-(A1-A6-Pad25)*%
X142240000Y-69670000D03*
%TO.P,A1,26,A7*%
%TO.N,unconnected-(A1-A7-Pad26)*%
X142240000Y-67130000D03*
%TO.P,A1,27,+5V*%
%TO.N,Net-(A1-+5V)*%
X142240000Y-64590000D03*
%TO.P,A1,28,~{RESET}*%
%TO.N,unconnected-(A1-~{RESET}-Pad28)*%
X142240000Y-62050000D03*
%TO.P,A1,29,GND*%
%TO.N,Net-(U1-GND)*%
X142240000Y-59510000D03*
%TO.P,A1,30,VIN*%
%TO.N,unconnected-(A1-VIN-Pad30)*%
X142240000Y-56970000D03*
%TD*%
D14*
%TO.N,Net-(A1-+5V)*%
X142739849Y-54500000D02*
X144800000Y-56560151D01*
X123700000Y-54800000D02*
X124000000Y-54500000D01*
X124000000Y-54500000D02*
X142739849Y-54500000D01*
X165910000Y-97830000D02*
X128330000Y-97830000D01*
X128330000Y-97830000D02*
X123700000Y-93200000D01*
X123700000Y-93200000D02*
X123700000Y-54800000D01*
X167040000Y-96700000D02*
X165910000Y-97830000D01*
X144800000Y-56560151D02*
X144800000Y-62030000D01*
X144800000Y-62030000D02*
X142240000Y-64590000D01*
%TO.N,Net-(A1-D13)*%
X147390811Y-87379189D02*
X142240000Y-92530000D01*
X147390811Y-86500000D02*
X147390811Y-87379189D01*
X151240811Y-82650000D02*
X147390811Y-86500000D01*
X155530000Y-82650000D02*
X151240811Y-82650000D01*
X156880000Y-84000000D02*
X155530000Y-82650000D01*
%TO.N,Net-(U1-GND)*%
X144000000Y-57750000D02*
X142240000Y-59510000D01*
X142608478Y-55500000D02*
X144000000Y-56891522D01*
X125870000Y-55500000D02*
X142608478Y-55500000D01*
X144000000Y-56891522D02*
X144000000Y-57750000D01*
X124500000Y-91868478D02*
X124500000Y-56870000D01*
X124500000Y-56870000D02*
X125870000Y-55500000D01*
X164170000Y-97030000D02*
X129661522Y-97030000D01*
X129661522Y-97030000D02*
X124500000Y-91868478D01*
X167040000Y-94160000D02*
X164170000Y-97030000D01*
%TO.N,Net-(A1-D12)*%
X149730000Y-96230000D02*
X130700000Y-96230000D01*
X130700000Y-96230000D02*
X127000000Y-92530000D01*
X161960000Y-84000000D02*
X149730000Y-96230000D01*
%TO.N,Net-(A1-D11)*%
X147990000Y-95430000D02*
X132440000Y-95430000D01*
X132440000Y-95430000D02*
X127000000Y-89990000D01*
X159420000Y-84000000D02*
X147990000Y-95430000D01*
%TO.N,Net-(A1-D10)*%
X134180000Y-94630000D02*
X127000000Y-87450000D01*
X143710000Y-94630000D02*
X134180000Y-94630000D01*
X154340000Y-84000000D02*
X143710000Y-94630000D01*
%TO.N,Net-(A1-D9)*%
X135920000Y-93830000D02*
X127000000Y-84910000D01*
X143172081Y-93830000D02*
X135920000Y-93830000D01*
X151800000Y-85202081D02*
X143172081Y-93830000D01*
X151800000Y-84000000D02*
X151800000Y-85202081D01*
%TD*%
M02*
